<?xml version="1.0" encoding="UTF-8"?>
<svg id="Layer_1" xmlns="http://www.w3.org/2000/svg" xmlns:xlink="http://www.w3.org/1999/xlink" version="1.1" viewBox="0 0 1000 1000">
  <!-- Generator: Adobe Illustrator 29.6.1, SVG Export Plug-In . SVG Version: 2.1.1 Build 9)  -->
  <defs>
    <style>
      .st0, .st1 {
        fill: none;
      }

      .st1 {
        stroke: #144663;
        stroke-miterlimit: 10;
      }

      .st2 {
        fill: #144663;
      }

      .st3 {
        clip-path: url(#clippath);
      }
    </style>
    <clipPath id="clippath">
      <rect class="st0" x="94.5" y="95" width="811" height="811"/>
    </clipPath>
  </defs>
  <g class="st3">
    <path class="st2" d="M788.45,714.44c-4.13,5.55-8.41,10.98-12.85,16.28h-302.02l-54.42,34.61h323.37c-6.32,5.79-12.85,11.36-19.58,16.7h-330.04l-54.42,34.61h331.99c-50.72,27.4-108.78,42.96-170.47,42.96-198.33,0-359.11-160.77-359.11-359.11S301.67,141.39,500,141.39s359.11,160.78,359.11,359.11c0,65.32-17.44,126.56-47.91,179.33h-257.58l-54.42,34.61h289.26ZM500,95c-223.95,0-405.5,181.55-405.5,405.5s181.54,405.5,405.5,405.5,405.5-181.55,405.5-405.5S723.95,95,500,95"/>
    <path class="st2" d="M564.16,379.86c-40.06,5.25-34.68,70.17,10.83,64.8,40.06-4.73,32.21-70.44-10.83-64.8"/>
    <path class="st2" d="M540.62,568.72l-20.62-26.26-.47-2.74c36.47-8.81,72.06-34.7,80.88-72.77-36.14,26.64-89.91,5.4-101.36-37.03-18.77-69.58,69.7-114.17,118.52-64.87,12.73,12.86,21.77,33.35,24.87,51.06,12.47,71.23-32.94,135.98-101.82,152.6M495.11,511.18h-20.72v57.07h-38.42v-57.07h-103.12l.29-.53h-.21l13.21-23.87,7.67-14.08h.13l71.45-129.14h49.02v129.14h20.72v38.49ZM510.96,249.75l48.56,44.06,22.51-24.42,53.33,49.3h-219.69l95.3-68.93ZM563.2,672.3l31.74-38.25,11.45,4.79,28.51-20.83,4.55,5.5,20.14-9.34,17.59-30.26,5.07,11.97c1.27.94,19.22-9.51,20.92-12.65,2-3.7,6.62-23.36,7.57-24.19,4.61-.53,12.5,8.77,16.5,6.95l33.74-34.09-16.45-51.85-44.41-17.67,1.89-51.62-42.58-19.04-12.07-172.09-50.3-44.45c-15.23,8.64-30.74,15.61-42.32,29.22-2.32.59-7.05-4.34-9.45-5.06-6.24-1.86-28.16,7.67-37.23,7.02-5.03-.36-10.79-4.25-16.01-4.73l-1-28.01-29-7.47-55.04,73.4c-14.65,34.78-27.43,70.44-43.6,104.62l13.67,17.36-11.57,27.08-54.6,46.64-1.8.32-6.65-12.75-14.62,4.2-.89,362.24,36.78,25.77c-.87-1.18,4.78-6.26,5.95-7.38,9.55-9.15,21.86-18.66,30.37-28.52,5.81-6.72,14.85-22.43,22.76-26.01,4.15-1.88,10.38-.5,13.56-3.9l31.4-45.45,13.62,3.54-3.57,7.63,7.54,8.8,43.33-22.92,26.97-35.62.61-20.56,20.88-45.86c2.29-.06,13.49-1.03,13.62,1.22l-17.33,36.66,29.76,35.63Z"/>
    <path class="st1" d="M540.62,568.72l-20.62-26.26-.47-2.74c36.47-8.81,72.06-34.7,80.88-72.77-36.14,26.64-89.91,5.4-101.36-37.03-18.77-69.58,69.7-114.17,118.52-64.87,12.73,12.86,21.77,33.35,24.87,51.06,12.47,71.23-32.94,135.98-101.82,152.6ZM495.11,511.18h-20.72v57.07h-38.42v-57.07h-103.12l.29-.53h-.21l13.21-23.87,7.67-14.08h.13l71.45-129.14h49.02v129.14h20.72v38.49ZM510.96,249.75l48.56,44.06,22.51-24.42,53.33,49.3h-219.69l95.3-68.93ZM563.2,672.3l31.74-38.25,11.45,4.79,28.51-20.83,4.55,5.5,20.14-9.34,17.59-30.26,5.07,11.97c1.27.94,19.22-9.51,20.92-12.65,2-3.7,6.62-23.36,7.57-24.19,4.61-.53,12.5,8.77,16.5,6.95l33.74-34.09-16.45-51.85-44.41-17.67,1.89-51.62-42.58-19.04-12.07-172.09-50.3-44.45c-15.23,8.64-30.74,15.61-42.32,29.22-2.32.59-7.05-4.34-9.45-5.06-6.24-1.86-28.16,7.67-37.23,7.02-5.03-.36-10.79-4.25-16.01-4.73l-1-28.01-29-7.47-55.04,73.4c-14.65,34.78-27.43,70.44-43.6,104.62l13.67,17.36-11.57,27.08-54.6,46.64-1.8.32-6.65-12.75-14.62,4.2-.89,362.24,36.78,25.77c-.87-1.18,4.78-6.26,5.95-7.38,9.55-9.15,21.86-18.66,30.37-28.52,5.81-6.72,14.85-22.43,22.76-26.01,4.15-1.88,10.38-.5,13.56-3.9l31.4-45.45,13.62,3.54-3.57,7.63,7.54,8.8,43.33-22.92,26.97-35.62.61-20.56,20.88-45.86c2.29-.06,13.49-1.03,13.62,1.22l-17.33,36.66,29.76,35.63Z"/>
    <path class="st2" d="M436.57,391.67l-34.18,61.7-12.12,20.75h45.73c2.79-5.31,1.09-12.94.57-19.42v-63.03Z"/>
  </g>
</svg>